<?xml version="1.0" encoding="UTF-8" standalone="no"?><svg xmlns="http://www.w3.org/2000/svg" xmlns:xlink="http://www.w3.org/1999/xlink" contentScriptType="application/ecmascript" contentStyleType="text/css" height="513.5417px" preserveAspectRatio="none" style="width:336px;height:513px;" version="1.1" viewBox="0 0 336 513" width="336.4583px" zoomAndPan="magnify"><defs><filter height="300%" id="ffnf03sqc0atx" width="300%" x="-1" y="-1"><feGaussianBlur result="blurOut" stdDeviation="2.0833333333333335"/><feColorMatrix in="blurOut" result="blurOut2" type="matrix" values="0 0 0 0 0 0 0 0 0 0 0 0 0 0 0 0 0 0 .4 0"/><feOffset dx="4.166666666666667" dy="4.166666666666667" in="blurOut2" result="blurOut3"/><feBlend in="SourceGraphic" in2="blurOut3" mode="normal"/></filter></defs><g><line style="stroke:#A80036;stroke-width:1.0416666666666667;" x1="38.5417" x2="38.5417" y1="41.9759" y2="355.8594"/><line style="stroke:#A80036;stroke-width:1.0416666666666667;stroke-dasharray:1.0,4.0;" x1="38.5417" x2="38.5417" y1="355.8594" y2="398.3643"/><line style="stroke:#A80036;stroke-width:1.0416666666666667;" x1="38.5417" x2="38.5417" y1="398.3643" y2="469.4743"/><line style="stroke:#A80036;stroke-width:1.0416666666666667;" x1="165.625" x2="165.625" y1="41.9759" y2="355.8594"/><line style="stroke:#A80036;stroke-width:1.0416666666666667;stroke-dasharray:1.0,4.0;" x1="165.625" x2="165.625" y1="355.8594" y2="398.3643"/><line style="stroke:#A80036;stroke-width:1.0416666666666667;" x1="165.625" x2="165.625" y1="398.3643" y2="469.4743"/><line style="stroke:#A80036;stroke-width:1.0416666666666667;" x1="292.7083" x2="292.7083" y1="41.9759" y2="355.8594"/><line style="stroke:#A80036;stroke-width:1.0416666666666667;stroke-dasharray:1.0,4.0;" x1="292.7083" x2="292.7083" y1="355.8594" y2="398.3643"/><line style="stroke:#A80036;stroke-width:1.0416666666666667;" x1="292.7083" x2="292.7083" y1="398.3643" y2="469.4743"/><rect fill="#FEFECE" filter="url(#ffnf03sqc0atx)" height="31.5592" style="stroke:#A80036;stroke-width:1.5625;" width="62.5" x="5.2083" y="5.2083"/><text fill="#000000" font-family="sans-serif" font-size="14.5833" lengthAdjust="spacing" textLength="47.9167" x="12.5" y="26.0366">client1</text><rect fill="#FEFECE" filter="url(#ffnf03sqc0atx)" height="31.5592" style="stroke:#A80036;stroke-width:1.5625;" width="62.5" x="5.2083" y="468.4326"/><text fill="#000000" font-family="sans-serif" font-size="14.5833" lengthAdjust="spacing" textLength="47.9167" x="12.5" y="489.2609">client1</text><rect fill="#FEFECE" filter="url(#ffnf03sqc0atx)" height="31.5592" style="stroke:#A80036;stroke-width:1.5625;" width="68.75" x="129.1667" y="5.2083"/><text fill="#000000" font-family="sans-serif" font-size="14.5833" lengthAdjust="spacing" textLength="54.1667" x="136.4583" y="26.0366">serveur</text><rect fill="#FEFECE" filter="url(#ffnf03sqc0atx)" height="31.5592" style="stroke:#A80036;stroke-width:1.5625;" width="68.75" x="129.1667" y="468.4326"/><text fill="#000000" font-family="sans-serif" font-size="14.5833" lengthAdjust="spacing" textLength="54.1667" x="136.4583" y="489.2609">serveur</text><rect fill="#FEFECE" filter="url(#ffnf03sqc0atx)" height="31.5592" style="stroke:#A80036;stroke-width:1.5625;" width="62.5" x="259.375" y="5.2083"/><text fill="#000000" font-family="sans-serif" font-size="14.5833" lengthAdjust="spacing" textLength="47.9167" x="266.6667" y="26.0366">client2</text><rect fill="#FEFECE" filter="url(#ffnf03sqc0atx)" height="31.5592" style="stroke:#A80036;stroke-width:1.5625;" width="62.5" x="259.375" y="468.4326"/><text fill="#000000" font-family="sans-serif" font-size="14.5833" lengthAdjust="spacing" textLength="47.9167" x="266.6667" y="489.2609">client2</text><polygon fill="#A80036" points="153.125,70.2393,163.5417,74.4059,153.125,78.5726,157.2917,74.4059" style="stroke:#A80036;stroke-width:1.0416666666666667;"/><line style="stroke:#A80036;stroke-width:1.0416666666666667;" x1="38.5417" x2="159.375" y1="74.4059" y2="74.4059"/><text fill="#000000" font-family="sans-serif" font-size="13.5417" lengthAdjust="spacing" textLength="69.7917" x="45.8333" y="69.1289">connect ...</text><polygon fill="#A80036" points="50,100.5859,39.5833,104.7526,50,108.9193,45.8333,104.7526" style="stroke:#A80036;stroke-width:1.0416666666666667;"/><line style="stroke:#A80036;stroke-width:1.0416666666666667;" x1="43.75" x2="164.5833" y1="104.7526" y2="104.7526"/><text fill="#000000" font-family="sans-serif" font-size="13.5417" lengthAdjust="spacing" textLength="86.4583" x="56.25" y="99.4756">connected ...</text><polygon fill="#A80036" points="177.0833,130.9326,166.6667,135.0993,177.0833,139.266,172.9167,135.0993" style="stroke:#A80036;stroke-width:1.0416666666666667;"/><line style="stroke:#A80036;stroke-width:1.0416666666666667;" x1="170.8333" x2="291.6667" y1="135.0993" y2="135.0993"/><text fill="#000000" font-family="sans-serif" font-size="13.5417" lengthAdjust="spacing" textLength="69.7917" x="183.3333" y="129.8223">connect ...</text><polygon fill="#A80036" points="280.2083,161.2793,290.625,165.446,280.2083,169.6126,284.375,165.446" style="stroke:#A80036;stroke-width:1.0416666666666667;"/><line style="stroke:#A80036;stroke-width:1.0416666666666667;" x1="165.625" x2="286.4583" y1="165.446" y2="165.446"/><text fill="#000000" font-family="sans-serif" font-size="13.5417" lengthAdjust="spacing" textLength="86.4583" x="172.9167" y="160.169">connected ...</text><polygon fill="#A80036" points="50,191.626,39.5833,195.7926,50,199.9593,45.8333,195.7926" style="stroke:#A80036;stroke-width:1.0416666666666667;"/><line style="stroke:#A80036;stroke-width:1.0416666666666667;" x1="43.75" x2="164.5833" y1="195.7926" y2="195.7926"/><text fill="#000000" font-family="sans-serif" font-size="13.5417" lengthAdjust="spacing" textLength="81.25" x="56.25" y="190.5156">newgame ...</text><polygon fill="#A80036" points="280.2083,221.9727,290.625,226.1393,280.2083,230.306,284.375,226.1393" style="stroke:#A80036;stroke-width:1.0416666666666667;"/><line style="stroke:#A80036;stroke-width:1.0416666666666667;" x1="165.625" x2="286.4583" y1="226.1393" y2="226.1393"/><text fill="#000000" font-family="sans-serif" font-size="13.5417" lengthAdjust="spacing" textLength="81.25" x="172.9167" y="220.8623">newgame ...</text><polygon fill="#A80036" points="50,252.3193,39.5833,256.486,50,260.6527,45.8333,256.486" style="stroke:#A80036;stroke-width:1.0416666666666667;"/><line style="stroke:#A80036;stroke-width:1.0416666666666667;" x1="43.75" x2="164.5833" y1="256.486" y2="256.486"/><text fill="#000000" font-family="sans-serif" font-size="13.5417" lengthAdjust="spacing" textLength="79.1667" x="56.25" y="251.209">genmove ...</text><polygon fill="#A80036" points="153.125,282.666,163.5417,286.8327,153.125,290.9993,157.2917,286.8327" style="stroke:#A80036;stroke-width:1.0416666666666667;"/><line style="stroke:#A80036;stroke-width:1.0416666666666667;" x1="38.5417" x2="159.375" y1="286.8327" y2="286.8327"/><text fill="#000000" font-family="sans-serif" font-size="13.5417" lengthAdjust="spacing" textLength="81.25" x="45.8333" y="281.5557">playmove ...</text><polygon fill="#A80036" points="280.2083,313.0127,290.625,317.1794,280.2083,321.346,284.375,317.1794" style="stroke:#A80036;stroke-width:1.0416666666666667;"/><line style="stroke:#A80036;stroke-width:1.0416666666666667;" x1="165.625" x2="286.4583" y1="317.1794" y2="317.1794"/><text fill="#000000" font-family="sans-serif" font-size="13.5417" lengthAdjust="spacing" textLength="79.1667" x="172.9167" y="311.9024">genmove ...</text><polygon fill="#A80036" points="177.0833,343.3594,166.6667,347.526,177.0833,351.6927,172.9167,347.526" style="stroke:#A80036;stroke-width:1.0416666666666667;"/><line style="stroke:#A80036;stroke-width:1.0416666666666667;" x1="170.8333" x2="291.6667" y1="347.526" y2="347.526"/><text fill="#000000" font-family="sans-serif" font-size="13.5417" lengthAdjust="spacing" textLength="81.25" x="183.3333" y="342.249">playmove ...</text><text fill="#000000" font-family="sans-serif" font-size="11.4583" lengthAdjust="spacing" textLength="17.7083" x="156.7708" y="381.0786">etc</text><polygon fill="#A80036" points="50,416.2109,39.5833,420.3776,50,424.5443,45.8333,420.3776" style="stroke:#A80036;stroke-width:1.0416666666666667;"/><line style="stroke:#A80036;stroke-width:1.0416666666666667;" x1="43.75" x2="164.5833" y1="420.3776" y2="420.3776"/><text fill="#000000" font-family="sans-serif" font-size="13.5417" lengthAdjust="spacing" textLength="102.0833" x="56.25" y="415.1006">endgame ... Ok</text><polygon fill="#A80036" points="280.2083,446.5576,290.625,450.7243,280.2083,454.891,284.375,450.7243" style="stroke:#A80036;stroke-width:1.0416666666666667;"/><line style="stroke:#A80036;stroke-width:1.0416666666666667;" x1="165.625" x2="286.4583" y1="450.7243" y2="450.7243"/><text fill="#000000" font-family="sans-serif" font-size="13.5417" lengthAdjust="spacing" textLength="102.0833" x="172.9167" y="445.4473">endgame ... Ok</text><!--MD5=[e7192da6358728fc1b57aec646fbb4d2]
@startuml

skinparam dpi 100

participant client1
participant serveur
participant client2

client1 -> serveur: connect ...
serveur -> client1: connected ...

client2 -> serveur: connect ...
serveur -> client2: connected ...

serveur -> client1: newgame ...
serveur -> client2: newgame ...

serveur -> client1: genmove ...
client1 -> serveur: playmove ...

serveur -> client2: genmove ...
client2 -> serveur: playmove ...

... etc ...

serveur -> client1: endgame ... Ok
serveur -> client2: endgame ... Ok

@enduml

PlantUML version 1.2021.3(Mon Mar 22 17:53:19 CET 2021)
(GPL source distribution)
Java Runtime: OpenJDK Runtime Environment
JVM: OpenJDK 64-Bit Server VM
Default Encoding: UTF-8
Language: en
Country: US
--></g></svg>