<?xml version="1.0" encoding="UTF-8" standalone="no"?><svg xmlns="http://www.w3.org/2000/svg" xmlns:xlink="http://www.w3.org/1999/xlink" contentScriptType="application/ecmascript" contentStyleType="text/css" height="483.3333px" preserveAspectRatio="none" style="width:409px;height:483px;" version="1.1" viewBox="0 0 409 483" width="409.375px" zoomAndPan="magnify"><defs><filter height="300%" id="fjlfcyxqxuhi7" width="300%" x="-1" y="-1"><feGaussianBlur result="blurOut" stdDeviation="2.0833333333333335"/><feColorMatrix in="blurOut" result="blurOut2" type="matrix" values="0 0 0 0 0 0 0 0 0 0 0 0 0 0 0 0 0 0 .4 0"/><feOffset dx="4.166666666666667" dy="4.166666666666667" in="blurOut2" result="blurOut3"/><feBlend in="SourceGraphic" in2="blurOut3" mode="normal"/></filter></defs><g><line style="stroke:#A80036;stroke-width:1.0416666666666667;" x1="38.5417" x2="38.5417" y1="41.9759" y2="325.5127"/><line style="stroke:#A80036;stroke-width:1.0416666666666667;stroke-dasharray:1.0,4.0;" x1="38.5417" x2="38.5417" y1="325.5127" y2="368.0176"/><line style="stroke:#A80036;stroke-width:1.0416666666666667;" x1="38.5417" x2="38.5417" y1="368.0176" y2="439.1276"/><line style="stroke:#A80036;stroke-width:1.0416666666666667;" x1="202.0833" x2="202.0833" y1="41.9759" y2="325.5127"/><line style="stroke:#A80036;stroke-width:1.0416666666666667;stroke-dasharray:1.0,4.0;" x1="202.0833" x2="202.0833" y1="325.5127" y2="368.0176"/><line style="stroke:#A80036;stroke-width:1.0416666666666667;" x1="202.0833" x2="202.0833" y1="368.0176" y2="439.1276"/><line style="stroke:#A80036;stroke-width:1.0416666666666667;" x1="365.625" x2="365.625" y1="41.9759" y2="325.5127"/><line style="stroke:#A80036;stroke-width:1.0416666666666667;stroke-dasharray:1.0,4.0;" x1="365.625" x2="365.625" y1="325.5127" y2="368.0176"/><line style="stroke:#A80036;stroke-width:1.0416666666666667;" x1="365.625" x2="365.625" y1="368.0176" y2="439.1276"/><rect fill="#FEFECE" filter="url(#fjlfcyxqxuhi7)" height="31.5592" style="stroke:#A80036;stroke-width:1.5625;" width="62.5" x="5.2083" y="5.2083"/><text fill="#000000" font-family="sans-serif" font-size="14.5833" lengthAdjust="spacing" textLength="47.9167" x="12.5" y="26.0366">client1</text><rect fill="#FEFECE" filter="url(#fjlfcyxqxuhi7)" height="31.5592" style="stroke:#A80036;stroke-width:1.5625;" width="62.5" x="5.2083" y="438.0859"/><text fill="#000000" font-family="sans-serif" font-size="14.5833" lengthAdjust="spacing" textLength="47.9167" x="12.5" y="458.9142">client1</text><rect fill="#FEFECE" filter="url(#fjlfcyxqxuhi7)" height="31.5592" style="stroke:#A80036;stroke-width:1.5625;" width="68.75" x="165.625" y="5.2083"/><text fill="#000000" font-family="sans-serif" font-size="14.5833" lengthAdjust="spacing" textLength="54.1667" x="172.9167" y="26.0366">serveur</text><rect fill="#FEFECE" filter="url(#fjlfcyxqxuhi7)" height="31.5592" style="stroke:#A80036;stroke-width:1.5625;" width="68.75" x="165.625" y="438.0859"/><text fill="#000000" font-family="sans-serif" font-size="14.5833" lengthAdjust="spacing" textLength="54.1667" x="172.9167" y="458.9142">serveur</text><rect fill="#FEFECE" filter="url(#fjlfcyxqxuhi7)" height="31.5592" style="stroke:#A80036;stroke-width:1.5625;" width="62.5" x="332.2917" y="5.2083"/><text fill="#000000" font-family="sans-serif" font-size="14.5833" lengthAdjust="spacing" textLength="47.9167" x="339.5833" y="26.0366">client2</text><rect fill="#FEFECE" filter="url(#fjlfcyxqxuhi7)" height="31.5592" style="stroke:#A80036;stroke-width:1.5625;" width="62.5" x="332.2917" y="438.0859"/><text fill="#000000" font-family="sans-serif" font-size="14.5833" lengthAdjust="spacing" textLength="47.9167" x="339.5833" y="458.9142">client2</text><polygon fill="#A80036" points="189.5833,70.2393,200,74.4059,189.5833,78.5726,193.75,74.4059" style="stroke:#A80036;stroke-width:1.0416666666666667;"/><line style="stroke:#A80036;stroke-width:1.0416666666666667;" x1="38.5417" x2="195.8333" y1="74.4059" y2="74.4059"/><text fill="#000000" font-family="sans-serif" font-size="13.5417" lengthAdjust="spacing" textLength="69.7917" x="45.8333" y="69.1289">connect ...</text><polygon fill="#A80036" points="50,100.5859,39.5833,104.7526,50,108.9193,45.8333,104.7526" style="stroke:#A80036;stroke-width:1.0416666666666667;"/><line style="stroke:#A80036;stroke-width:1.0416666666666667;" x1="43.75" x2="201.0417" y1="104.7526" y2="104.7526"/><text fill="#000000" font-family="sans-serif" font-size="13.5417" lengthAdjust="spacing" textLength="86.4583" x="56.25" y="99.4756">connected ...</text><polygon fill="#A80036" points="213.5417,130.9326,203.125,135.0993,213.5417,139.266,209.375,135.0993" style="stroke:#A80036;stroke-width:1.0416666666666667;"/><line style="stroke:#A80036;stroke-width:1.0416666666666667;" x1="207.2917" x2="364.5833" y1="135.0993" y2="135.0993"/><text fill="#000000" font-family="sans-serif" font-size="13.5417" lengthAdjust="spacing" textLength="69.7917" x="219.7917" y="129.8223">connect ...</text><polygon fill="#A80036" points="353.125,161.2793,363.5417,165.446,353.125,169.6126,357.2917,165.446" style="stroke:#A80036;stroke-width:1.0416666666666667;"/><line style="stroke:#A80036;stroke-width:1.0416666666666667;" x1="202.0833" x2="359.375" y1="165.446" y2="165.446"/><text fill="#000000" font-family="sans-serif" font-size="13.5417" lengthAdjust="spacing" textLength="86.4583" x="209.375" y="160.169">connected ...</text><polygon fill="#A80036" points="50,191.626,39.5833,195.7926,50,199.9593,45.8333,195.7926" style="stroke:#A80036;stroke-width:1.0416666666666667;"/><line style="stroke:#A80036;stroke-width:1.0416666666666667;" x1="43.75" x2="201.0417" y1="195.7926" y2="195.7926"/><text fill="#000000" font-family="sans-serif" font-size="13.5417" lengthAdjust="spacing" textLength="81.25" x="56.25" y="190.5156">newgame ...</text><polygon fill="#A80036" points="353.125,221.9727,363.5417,226.1393,353.125,230.306,357.2917,226.1393" style="stroke:#A80036;stroke-width:1.0416666666666667;"/><line style="stroke:#A80036;stroke-width:1.0416666666666667;" x1="202.0833" x2="359.375" y1="226.1393" y2="226.1393"/><text fill="#000000" font-family="sans-serif" font-size="13.5417" lengthAdjust="spacing" textLength="81.25" x="209.375" y="220.8623">newgame ...</text><polygon fill="#A80036" points="50,252.3193,39.5833,256.486,50,260.6527,45.8333,256.486" style="stroke:#A80036;stroke-width:1.0416666666666667;"/><line style="stroke:#A80036;stroke-width:1.0416666666666667;" x1="43.75" x2="201.0417" y1="256.486" y2="256.486"/><text fill="#000000" font-family="sans-serif" font-size="13.5417" lengthAdjust="spacing" textLength="79.1667" x="56.25" y="251.209">genmove ...</text><polygon fill="#A80036" points="189.5833,282.666,200,286.8327,189.5833,290.9993,193.75,286.8327" style="stroke:#A80036;stroke-width:1.0416666666666667;"/><line style="stroke:#A80036;stroke-width:1.0416666666666667;" x1="38.5417" x2="195.8333" y1="286.8327" y2="286.8327"/><text fill="#000000" font-family="sans-serif" font-size="13.5417" lengthAdjust="spacing" textLength="81.25" x="45.8333" y="281.5557">playmove ...</text><polygon fill="#A80036" points="353.125,313.0127,363.5417,317.1794,353.125,321.346,357.2917,317.1794" style="stroke:#A80036;stroke-width:1.0416666666666667;"/><line style="stroke:#A80036;stroke-width:1.0416666666666667;" x1="202.0833" x2="359.375" y1="317.1794" y2="317.1794"/><text fill="#000000" font-family="sans-serif" font-size="13.5417" lengthAdjust="spacing" textLength="79.1667" x="209.375" y="311.9024">genmove ...</text><text fill="#000000" font-family="sans-serif" font-size="11.4583" lengthAdjust="spacing" textLength="22.9167" x="190.625" y="350.7319">rien</text><polygon fill="#A80036" points="50,385.8643,39.5833,390.0309,50,394.1976,45.8333,390.0309" style="stroke:#A80036;stroke-width:1.0416666666666667;"/><line style="stroke:#A80036;stroke-width:1.0416666666666667;" x1="43.75" x2="201.0417" y1="390.0309" y2="390.0309"/><text fill="#000000" font-family="sans-serif" font-size="13.5417" lengthAdjust="spacing" textLength="138.5417" x="56.25" y="384.7539">endgame ... Timeout</text><polygon fill="#A80036" points="353.125,416.2109,363.5417,420.3776,353.125,424.5443,357.2917,420.3776" style="stroke:#A80036;stroke-width:1.0416666666666667;"/><line style="stroke:#A80036;stroke-width:1.0416666666666667;" x1="202.0833" x2="359.375" y1="420.3776" y2="420.3776"/><text fill="#000000" font-family="sans-serif" font-size="13.5417" lengthAdjust="spacing" textLength="138.5417" x="209.375" y="415.1006">endgame ... Timeout</text><!--MD5=[a98d727bf440b708477d2b4d36afebbc]
@startuml

skinparam dpi 100

participant client1
participant serveur
participant client2

client1 -> serveur: connect ...
serveur -> client1: connected ...

client2 -> serveur: connect ...
serveur -> client2: connected ...

serveur -> client1: newgame ... 
serveur -> client2: newgame ...

serveur -> client1: genmove ...
client1 -> serveur: playmove ...

serveur -> client2: genmove ...

... rien ...

serveur -> client1: endgame ... Timeout
serveur -> client2: endgame ... Timeout

@enduml

PlantUML version 1.2021.3(Mon Mar 22 17:53:19 CET 2021)
(GPL source distribution)
Java Runtime: OpenJDK Runtime Environment
JVM: OpenJDK 64-Bit Server VM
Default Encoding: UTF-8
Language: en
Country: US
--></g></svg>